{
    "asset" : {
        "generator" : "Khronos glTF Blender I/O v1.7.33",
        "version" : "2.0"
    },
    "scene" : 0,
    "scenes" : [
        {
            "name" : "Scene",
            "nodes" : [
                0
            ]
        }
    ],
    "nodes" : [
        {
            "mesh" : 0,
            "name" : "NeonGlass.001",
            "rotation" : [
                0.7071068286895752,
                0,
                0,
                0.7071068286895752
            ]
        }
    ],
    "materials" : [
        {
            "doubleSided" : true,
            "emissiveFactor" : [
                0,
                1,
                1
            ],
            "name" : "Blue Edge Glow",
            "pbrMetallicRoughness" : {
                "baseColorFactor" : [
                    0,
                    0,
                    0,
                    1
                ],
                "metallicFactor" : 0,
                "roughnessFactor" : 0.009090900421142578
            }
        }
    ],
    "meshes" : [
        {
            "name" : "BezierCurve.001",
            "primitives" : [
                {
                    "attributes" : {
                        "POSITION" : 0,
                        "NORMAL" : 1,
                        "TEXCOORD_0" : 2
                    },
                    "indices" : 3,
                    "material" : 0
                }
            ]
        }
    ],
    "accessors" : [
        {
            "bufferView" : 0,
            "componentType" : 5126,
            "count" : 10544,
            "max" : [
                8.824055671691895,
                0.2686814069747925,
                3.692208766937256
            ],
            "min" : [
                -9.912042617797852,
                -0.26868176460266113,
                -6.641810894012451
            ],
            "type" : "VEC3"
        },
        {
            "bufferView" : 1,
            "componentType" : 5126,
            "count" : 10544,
            "type" : "VEC3"
        },
        {
            "bufferView" : 2,
            "componentType" : 5126,
            "count" : 10544,
            "type" : "VEC2"
        },
        {
            "bufferView" : 3,
            "componentType" : 5123,
            "count" : 43608,
            "type" : "SCALAR"
        }
    ],
    "bufferViews" : [
        {
            "buffer" : 0,
            "byteLength" : 126528,
            "byteOffset" : 0
        },
        {
            "buffer" : 0,
            "byteLength" : 126528,
            "byteOffset" : 126528
        },
        {
            "buffer" : 0,
            "byteLength" : 84352,
            "byteOffset" : 253056
        },
        {
            "buffer" : 0,
            "byteLength" : 87216,
            "byteOffset" : 337408
        }
    ],
    "buffers" : [
        {
            "byteLength" : 424624,
            "uri" : "NeonGenerator.bin"
        }
    ]
}
